<svg width="1290" height="245" viewBox="0 0 1290 245" fill="none" xmlns="http://www.w3.org/2000/svg">
<path d="M1238.18 6.82523C1245.08 6.82523 1251.69 9.5579 1256.56 14.4519L1276.43 34.3258C1283.14 41.0333 1285.67 50.8709 1283.02 59.9881L1236.61 219.626C1233.38 230.73 1223.2 238.382 1211.64 238.382H776.653H513.397H78.4059C66.8294 238.382 56.6688 230.73 53.4393 219.626L7.00878 59.9633C4.35064 50.8461 6.88456 41.0333 13.592 34.301L33.466 14.427C38.3351 9.55791 44.968 6.80039 51.8494 6.80039H514.987H775.087H1238.18M1238.18 0.863037H775.063H514.987H51.8742C47.651 0.863037 43.5272 1.68285 39.6269 3.29761C35.7266 4.91237 32.2487 7.24755 29.2428 10.2286L9.36881 30.1026C1.12112 38.3503 -1.9842 50.4238 1.27016 61.6277L47.6759 221.265C49.6136 227.973 53.6132 233.711 59.1779 237.91C64.7674 242.108 71.4004 244.319 78.3811 244.319H513.372H776.628H1211.62C1218.6 244.319 1225.23 242.108 1230.82 237.91C1236.41 233.711 1240.39 227.973 1242.32 221.265L1288.73 61.6277C1291.98 50.4238 1288.88 38.3503 1280.63 30.1026L1260.76 10.2286C1257.78 7.24755 1254.27 4.91237 1250.37 3.29761C1246.52 1.68285 1242.4 0.863037 1238.18 0.863037Z" fill="#29ABE2"/>
</svg>
