<svg width="483" height="116" viewBox="0 0 483 116" fill="none" xmlns="http://www.w3.org/2000/svg">
<path d="M30.3423 112.323H447.944C452.49 112.323 456.44 109.193 457.508 104.771L478.45 16.357C479.916 10.1961 475.221 4.28357 468.886 4.28357H13.673C7.51211 4.28357 2.8914 9.87314 4.03416 15.9099L20.7034 104.324C21.5729 108.97 25.6222 112.323 30.3423 112.323Z" fill="#17B8ED"/>
<path d="M468.886 4.25919C475.221 4.25919 479.891 10.1717 478.45 16.3326L457.508 104.747C456.465 109.169 452.515 112.299 447.944 112.299H30.3422C25.6221 112.299 21.5728 108.945 20.7033 104.3L4.03406 15.8855C2.8913 9.84876 7.53685 4.25919 13.6729 4.25919H468.886ZM468.886 0.78125H13.6729C9.69814 0.78125 5.97173 2.54507 3.4378 5.60069C0.903871 8.65632 -0.139487 12.6559 0.605786 16.5562L17.2751 104.971C18.4675 111.256 23.9577 115.802 30.3422 115.802H447.944C450.925 115.802 453.856 114.783 456.191 112.945C458.526 111.107 460.191 108.473 460.887 105.592L481.829 17.1773C482.773 13.2025 481.854 9.07863 479.32 5.87395C476.761 2.61959 472.96 0.78125 468.886 0.78125Z" fill="#29ABE2"/>
</svg>
