<svg width="483" height="116" viewBox="0 0 483 116" fill="none" xmlns="http://www.w3.org/2000/svg">
<path d="M451.565 112.324H35.1058C30.5596 112.324 26.6097 109.194 25.5414 104.772L4.59927 16.3573C3.13356 10.1963 7.82879 4.28381 14.1636 4.28381H469.227C475.413 4.28381 480.059 9.94791 478.866 16.0343L461.179 104.449C460.259 109.02 456.235 112.324 451.565 112.324Z" fill="#030A21"/>
<path d="M469.228 4.25907C475.413 4.25907 480.059 9.92317 478.866 16.0096L461.179 104.424C460.259 109.02 456.235 112.324 451.54 112.324H35.1058C30.5597 112.324 26.6097 109.194 25.5415 104.772L4.59935 16.3574C3.13364 10.1964 7.82886 4.28391 14.1637 4.28391H469.228M469.228 0.781128H14.1637C10.0647 0.781128 6.26379 2.61948 3.72986 5.82416C1.19593 9.02884 0.276768 13.1527 1.22078 17.1275L22.1629 105.542C22.8585 108.448 24.523 111.057 26.8582 112.895C29.1934 114.733 32.1248 115.752 35.1058 115.752H451.54C457.85 115.752 463.34 111.256 464.582 105.07L482.27 16.6555C483.065 12.7304 482.046 8.70587 479.512 5.62541C476.978 2.54494 473.227 0.781128 469.228 0.781128Z" fill="#29ABE2"/>
</svg>
